<?xml version="1.0" encoding="UTF-8" standalone="no"?> <svg width="64" height="64" viewBox="0 0 64 64" fill="none"
  xmlns="http://www.w3.org/2000/svg">
  <path
    d="M54.7099 10.2899C54.8415 10.2907 54.972 10.2654 55.0938 10.2157C55.2156 10.1659 55.3265 10.0926 55.4199 9.99989L57.9999 7.43989C58.1909 7.24894 58.2981 6.98995 58.2981 6.71989C58.2981 6.44984 58.1909 6.19085 57.9999 5.99989C57.8089 5.80894 57.55 5.70166 57.2799 5.70166C57.0098 5.70166 56.7509 5.80894 56.5599 5.99989L53.9999 8.57989C53.9062 8.67286 53.8318 8.78346 53.781 8.90532C53.7302 9.02718 53.7041 9.15788 53.7041 9.28989C53.7041 9.42191 53.7302 9.55261 53.781 9.67447C53.8318 9.79633 53.9062 9.90693 53.9999 9.99989C54.0933 10.0926 54.2042 10.1659 54.326 10.2157C54.4478 10.2654 54.5783 10.2907 54.7099 10.2899Z"
    fill="#B72026" />
  <path
    d="M59.9996 12.3301H56.3896C56.1244 12.3301 55.8701 12.4354 55.6825 12.623C55.495 12.8105 55.3896 13.0649 55.3896 13.3301C55.3896 13.5953 55.495 13.8496 55.6825 14.0372C55.8701 14.2247 56.1244 14.3301 56.3896 14.3301H59.9996C60.2649 14.3301 60.5192 14.2247 60.7068 14.0372C60.8943 13.8496 60.9996 13.5953 60.9996 13.3301C60.9996 13.0649 60.8943 12.8105 60.7068 12.623C60.5192 12.4354 60.2649 12.3301 59.9996 12.3301Z"
    fill="#B72026" />
  <path
    d="M55.4198 16.6701C55.3268 16.5763 55.2162 16.5019 55.0944 16.4512C54.9725 16.4004 54.8418 16.3743 54.7098 16.3743C54.5778 16.3743 54.4471 16.4004 54.3252 16.4512C54.2033 16.5019 54.0927 16.5763 53.9998 16.6701C53.8135 16.8574 53.709 17.1109 53.709 17.3751C53.709 17.6393 53.8135 17.8927 53.9998 18.0801L56.5598 20.6401C56.7471 20.8263 57.0006 20.9309 57.2648 20.9309C57.529 20.9309 57.7824 20.8263 57.9698 20.6401C58.156 20.4527 58.2606 20.1993 58.2606 19.9351C58.2606 19.6709 58.156 19.4174 57.9698 19.2301L55.4198 16.6701Z"
    fill="#B72026" />
  <path
    d="M50.6699 18.05C50.4047 18.05 50.1504 18.1554 49.9628 18.3429C49.7753 18.5305 49.6699 18.7848 49.6699 19.05V22.67C49.6699 22.9353 49.7753 23.1896 49.9628 23.3772C50.1504 23.5647 50.4047 23.67 50.6699 23.67C50.9351 23.67 51.1895 23.5647 51.377 23.3772C51.5646 23.1896 51.6699 22.9353 51.6699 22.67V19.05C51.6699 18.7848 51.5646 18.5305 51.377 18.3429C51.1895 18.1554 50.9351 18.05 50.6699 18.05Z"
    fill="#B72026" />
  <path
    d="M50.6699 3C50.4047 3 50.1504 3.10536 49.9628 3.29289C49.7753 3.48043 49.6699 3.73478 49.6699 4V7.61C49.6699 7.87522 49.7753 8.12957 49.9628 8.31711C50.1504 8.50464 50.4047 8.61 50.6699 8.61C50.9351 8.61 51.1895 8.50464 51.377 8.31711C51.5646 8.12957 51.6699 7.87522 51.6699 7.61V4C51.6699 3.73478 51.5646 3.48043 51.377 3.29289C51.1895 3.10536 50.9351 3 50.6699 3V3Z"
    fill="#B72026" />
  <path
    d="M51.3696 12.6299C49.7582 11.0298 47.613 10.0807 45.3451 9.96444C43.0772 9.84819 40.8461 10.573 39.0796 11.9999L36.2496 9.1299C36.0622 8.94365 35.8088 8.83911 35.5446 8.83911C35.2804 8.83911 35.0269 8.94365 34.8396 9.1299L31.0496 12.9199C30.8633 13.1073 30.7588 13.3607 30.7588 13.6249C30.7588 13.8891 30.8633 14.1425 31.0496 14.3299C31.1425 14.4236 31.2531 14.498 31.375 14.5488C31.4969 14.5996 31.6276 14.6257 31.7596 14.6257C31.8916 14.6257 32.0223 14.5996 32.1442 14.5488C32.266 14.498 32.3766 14.4236 32.4696 14.3299L32.5696 14.2199L38.1196 19.8399L38.0496 19.9099C37.8633 20.0973 37.7588 20.3507 37.7588 20.6149C37.7588 20.8791 37.8633 21.1325 38.0496 21.3199C38.2358 21.5046 38.4872 21.6088 38.7496 21.6099C38.8812 21.6107 39.0117 21.5854 39.1335 21.5357C39.2553 21.4859 39.3661 21.4126 39.4596 21.3199L43.2496 17.5399C43.3433 17.4469 43.4177 17.3363 43.4685 17.2145C43.5192 17.0926 43.5454 16.9619 43.5454 16.8299C43.5454 16.6979 43.5192 16.5672 43.4685 16.4453C43.4177 16.3235 43.3433 16.2129 43.2496 16.1199L40.5096 13.3899C41.8978 12.3269 43.6241 11.803 45.369 11.9151C47.1138 12.0273 48.7589 12.7679 49.9996 13.9999C50.093 14.0926 50.2038 14.1659 50.3257 14.2157C50.4475 14.2654 50.578 14.2907 50.7096 14.2899C50.9719 14.2888 51.2233 14.1846 51.4096 13.9999C51.5786 13.8094 51.6686 13.5616 51.6612 13.307C51.6538 13.0524 51.5495 12.8102 51.3696 12.6299V12.6299Z"
    fill="#5E5357" />
  <path
    d="M39.6198 20.12C38.1312 17.4955 36.0565 15.2503 33.5575 13.5595C31.0585 11.8686 28.2027 10.7779 25.2128 10.3724C22.2229 9.96679 19.1797 10.2574 16.3206 11.2214C13.4615 12.1854 10.8637 13.7969 8.72976 15.93C5.99333 18.6673 4.12908 22.1539 3.37228 25.9497C2.61548 29.7454 3.00005 33.6803 4.47745 37.2578C5.95485 40.8352 8.45888 43.8948 11.6735 46.0505C14.8881 48.2062 18.6693 49.3613 22.5398 49.37C23.2917 49.3716 24.043 49.3282 24.7898 49.24C24.9623 49.2174 25.1259 49.1501 25.2644 49.0449C25.4029 48.9397 25.5116 48.8001 25.5798 48.64C28.5974 48.1623 31.4565 46.9676 33.9169 45.1562C36.3773 43.3448 38.3673 40.9697 39.7198 38.23C39.8937 38.2126 40.06 38.1499 40.2021 38.0481C40.3442 37.9463 40.4572 37.8091 40.5298 37.65C41.7473 34.8575 42.2989 31.8201 42.141 28.7778C41.9831 25.7354 41.1199 22.7715 39.6198 20.12V20.12Z"
    fill="#42393C" />
  <path
    d="M29.0698 40.1001C29.0698 39.8349 28.9644 39.5805 28.7769 39.393C28.5894 39.2055 28.335 39.1001 28.0698 39.1001H27.4898C26.4722 39.1027 25.497 39.5082 24.7774 40.2277C24.0579 40.9473 23.6524 41.9225 23.6498 42.9401C23.651 43.4769 23.7657 44.0075 23.9863 44.4969C24.2069 44.9863 24.5284 45.4236 24.9298 45.7801C24.5271 46.1367 24.2047 46.5746 23.9839 47.0651C23.7631 47.5555 23.6489 48.0872 23.6489 48.6251C23.6489 49.163 23.7631 49.6947 23.9839 50.1851C24.2047 50.6756 24.5271 51.1135 24.9298 51.4701C24.5271 51.8277 24.2049 52.2666 23.9842 52.7579C23.7636 53.2491 23.6496 53.7816 23.6498 54.3201C23.6524 55.3377 24.0579 56.3129 24.7774 57.0325C25.497 57.752 26.4722 58.1575 27.4898 58.1601H28.0698C28.2827 58.1558 28.4887 58.0837 28.6578 57.9542C28.8269 57.8247 28.9502 57.6446 29.0098 57.4401H29.8798V40.1001H29.0698Z"
    fill="#B72026" />
  <path
    d="M60.9999 48.6301C60.9976 48.092 60.8824 47.5603 60.662 47.0694C60.4415 46.5785 60.1206 46.1393 59.7199 45.7801L59.8699 45.6601C60.2302 45.3051 60.5158 44.8815 60.7099 44.4144C60.904 43.9472 61.0026 43.4459 60.9999 42.9401C60.9999 42.4358 60.9006 41.9365 60.7076 41.4706C60.5146 41.0047 60.2317 40.5814 59.8752 40.2248C59.5186 39.8682 59.0953 39.5854 58.6294 39.3924C58.1635 39.1994 57.6642 39.1001 57.1599 39.1001H56.5799C56.3147 39.1001 56.0603 39.2055 55.8728 39.393C55.6852 39.5805 55.5799 39.8349 55.5799 40.1001H54.3799V57.4401H55.6499C55.7095 57.6446 55.8328 57.8247 56.0019 57.9542C56.1709 58.0837 56.3769 58.1558 56.5899 58.1601H57.1699C57.9473 58.1627 58.7071 57.9286 59.3483 57.489C59.9895 57.0493 60.4817 56.425 60.7595 55.6989C61.0374 54.9728 61.0877 54.1794 60.9038 53.424C60.7199 52.6687 60.3104 51.9872 59.7299 51.4701L59.8699 51.3501C60.2316 50.9961 60.5181 50.5727 60.7123 50.1054C60.9065 49.638 61.0043 49.1362 60.9999 48.6301V48.6301Z"
    fill="#B72026" />
  <path
    d="M53.7498 47.6299H50.0798C49.8913 47.6304 49.7068 47.6842 49.5476 47.7851C49.3884 47.8859 49.2609 48.0297 49.1798 48.1999H35.3498C35.2688 48.0297 35.1413 47.8859 34.982 47.7851C34.8228 47.6842 34.6383 47.6304 34.4498 47.6299H30.9098C29.8914 47.6299 28.9147 48.0345 28.1945 48.7546C27.4744 49.4747 27.0698 50.4515 27.0698 51.4699C27.0698 52.4883 27.4744 53.465 28.1945 54.1852C28.9147 54.9053 29.8914 55.3099 30.9098 55.3099H36.9098C37.175 55.3099 37.4294 55.2045 37.6169 55.017C37.8045 54.8295 37.9098 54.5751 37.9098 54.3099H46.6398C46.6398 54.5751 46.7452 54.8295 46.9327 55.017C47.1203 55.2045 47.3746 55.3099 47.6398 55.3099H53.7598C54.7783 55.3099 55.755 54.9053 56.4751 54.1852C57.1953 53.465 57.5998 52.4883 57.5998 51.4699C57.5998 50.4515 57.1953 49.4747 56.4751 48.7546C55.755 48.0345 54.7783 47.6299 53.7598 47.6299H53.7498Z"
    fill="#951414" />
  <path
    d="M53.7499 41.9399H47.6299C47.3974 41.9348 47.1703 42.0108 46.9878 42.155C46.8052 42.2992 46.6787 42.5025 46.6299 42.7299H37.8599C37.8111 42.5025 37.6846 42.2992 37.502 42.155C37.3195 42.0108 37.0925 41.9348 36.8599 41.9399H30.8599C29.8741 41.9902 28.9452 42.4173 28.2652 43.1328C27.5852 43.8484 27.2061 44.7978 27.2061 45.7849C27.2061 46.7721 27.5852 47.7215 28.2652 48.437C28.9452 49.1526 29.8741 49.5797 30.8599 49.6299H34.3999C34.6651 49.6299 34.9195 49.5246 35.107 49.3371C35.2945 49.1495 35.3999 48.8952 35.3999 48.6299H49.0799C49.0799 48.8952 49.1853 49.1495 49.3728 49.3371C49.5603 49.5246 49.8147 49.6299 50.0799 49.6299H53.7499C54.2556 49.6315 54.7565 49.5324 55.2235 49.3384C55.6905 49.1444 56.1142 48.8594 56.4699 48.4999C57.004 47.961 57.3669 47.2763 57.5131 46.5318C57.6593 45.7873 57.5823 45.0162 57.2917 44.3153C57.0011 43.6144 56.5099 43.0151 55.8797 42.5924C55.2496 42.1698 54.5086 41.9428 53.7499 41.9399V41.9399Z"
    fill="#A61B19" />
  <path
    d="M53.7499 53.3101H47.6299C47.4308 53.3091 47.2359 53.3675 47.0702 53.478C46.9045 53.5885 46.7756 53.7459 46.6999 53.9301H37.8299C37.7543 53.7459 37.6253 53.5885 37.4597 53.478C37.294 53.3675 37.0991 53.3091 36.8999 53.3101H30.8999C29.9141 53.3604 28.9852 53.7874 28.3052 54.503C27.6253 55.2185 27.2461 56.1679 27.2461 57.1551C27.2461 58.1422 27.6253 59.0916 28.3052 59.8072C28.9852 60.5227 29.9141 60.9498 30.8999 61.0001H53.7499C54.7358 60.9498 55.6647 60.5227 56.3446 59.8072C57.0246 59.0916 57.4038 58.1422 57.4038 57.1551C57.4038 56.1679 57.0246 55.2185 56.3446 54.503C55.6647 53.7874 54.7358 53.3604 53.7499 53.3101Z"
    fill="#A61B19" />
  <path
    d="M42.26 39.8201C40.5179 39.822 38.8156 40.3404 37.3681 41.3097C35.9206 42.2789 34.793 43.6556 34.1277 45.2656C33.4624 46.8755 33.2894 48.6466 33.6305 50.3549C33.9715 52.0632 34.8114 53.6321 36.0439 54.8632C37.2764 56.0943 38.8462 56.9324 40.5549 57.2715C42.2636 57.6106 44.0345 57.4356 45.6437 56.7685C47.2529 56.1014 48.6283 54.9722 49.5959 53.5236C50.5635 52.075 51.08 50.3721 51.08 48.6301C51.0773 46.2926 50.1469 44.0518 48.4931 42.3998C46.8393 40.7479 44.5974 39.8201 42.26 39.8201V39.8201Z"
    fill="#C0BDBA" />
  <path
    d="M43.0997 43.6101C42.8345 43.6101 42.5801 43.7155 42.3926 43.903C42.2051 44.0905 42.0997 44.3449 42.0997 44.6101V48.8201L38.4697 47.2901C38.2302 47.21 37.9693 47.2234 37.7393 47.3277C37.5094 47.432 37.3273 47.6194 37.2299 47.8524C37.1324 48.0853 37.1266 48.3465 37.2138 48.5835C37.3009 48.8205 37.4745 49.0158 37.6997 49.1301L42.6997 51.2401C42.7529 51.2449 42.8065 51.2449 42.8597 51.2401C42.9361 51.2496 43.0133 51.2496 43.0897 51.2401C43.21 51.2421 43.3294 51.2182 43.4397 51.1701H43.5297C43.6049 51.1317 43.6753 51.0847 43.7397 51.0301L43.8197 50.9601C43.8943 50.8749 43.9581 50.7809 44.0097 50.6801V50.6801C44.0097 50.6801 44.0097 50.6201 44.0097 50.5901C44.045 50.4938 44.0652 50.3926 44.0697 50.2901V44.6101C44.0698 44.35 43.9686 44.1001 43.7875 43.9134C43.6064 43.7267 43.3597 43.6179 43.0997 43.6101Z"
    fill="#E6E6E6" />
  <path
    d="M54.7099 10.2899C54.8415 10.2907 54.972 10.2654 55.0938 10.2157C55.2156 10.1659 55.3265 10.0926 55.4199 9.99989L57.9999 7.43989C58.1909 7.24894 58.2981 6.98995 58.2981 6.71989C58.2981 6.44984 58.1909 6.19085 57.9999 5.99989C57.8089 5.80894 57.55 5.70166 57.2799 5.70166C57.0098 5.70166 56.7509 5.80894 56.5599 5.99989L53.9999 8.57989C53.9062 8.67286 53.8318 8.78346 53.781 8.90532C53.7302 9.02718 53.7041 9.15788 53.7041 9.28989C53.7041 9.42191 53.7302 9.55261 53.781 9.67447C53.8318 9.79633 53.9062 9.90693 53.9999 9.99989C54.0933 10.0926 54.2042 10.1659 54.326 10.2157C54.4478 10.2654 54.5783 10.2907 54.7099 10.2899Z"
    fill="black" />
  <path
    d="M55.3896 13.3301C55.3896 13.5953 55.495 13.8496 55.6825 14.0372C55.8701 14.2247 56.1244 14.3301 56.3896 14.3301H59.9996C60.2649 14.3301 60.5192 14.2247 60.7068 14.0372C60.8943 13.8496 60.9996 13.5953 60.9996 13.3301C60.9996 13.0649 60.8943 12.8105 60.7068 12.623C60.5192 12.4354 60.2649 12.3301 59.9996 12.3301H56.3896C56.1244 12.3301 55.8701 12.4354 55.6825 12.623C55.495 12.8105 55.3896 13.0649 55.3896 13.3301Z"
    fill="black" />
  <path
    d="M56.5598 20.6401C56.7471 20.8263 57.0006 20.9309 57.2648 20.9309C57.529 20.9309 57.7824 20.8263 57.9698 20.6401C58.156 20.4527 58.2606 20.1993 58.2606 19.9351C58.2606 19.6709 58.156 19.4174 57.9698 19.2301L55.4198 16.6701C55.3268 16.5763 55.2162 16.5019 55.0944 16.4512C54.9725 16.4004 54.8418 16.3743 54.7098 16.3743C54.5778 16.3743 54.4471 16.4004 54.3252 16.4512C54.2033 16.5019 54.0927 16.5763 53.9998 16.6701C53.8135 16.8574 53.709 17.1109 53.709 17.3751C53.709 17.6393 53.8135 17.8927 53.9998 18.0801L56.5598 20.6401Z"
    fill="black" />
  <path
    d="M49.6699 19.05V22.67C49.6699 22.9353 49.7753 23.1896 49.9628 23.3772C50.1504 23.5647 50.4047 23.67 50.6699 23.67C50.9351 23.67 51.1895 23.5647 51.377 23.3772C51.5646 23.1896 51.6699 22.9353 51.6699 22.67V19.05C51.6699 18.7848 51.5646 18.5305 51.377 18.3429C51.1895 18.1554 50.9351 18.05 50.6699 18.05C50.4047 18.05 50.1504 18.1554 49.9628 18.3429C49.7753 18.5305 49.6699 18.7848 49.6699 19.05Z"
    fill="black" />
  <path
    d="M50.6699 8.61C50.9351 8.61 51.1895 8.50464 51.377 8.31711C51.5646 8.12957 51.6699 7.87522 51.6699 7.61V4C51.6699 3.73478 51.5646 3.48043 51.377 3.29289C51.1895 3.10536 50.9351 3 50.6699 3C50.4047 3 50.1504 3.10536 49.9628 3.29289C49.7753 3.48043 49.6699 3.73478 49.6699 4V7.61C49.6699 7.87522 49.7753 8.12957 49.9628 8.31711C50.1504 8.50464 50.4047 8.61 50.6699 8.61Z"
    fill="black" />
  <path
    d="M60.9999 48.6299C60.9976 48.0918 60.8825 47.5601 60.662 47.0692C60.4415 46.5783 60.1206 46.1391 59.7199 45.7799L59.8699 45.6599C60.3937 45.1428 60.7569 44.4855 60.9159 43.7668C61.075 43.0482 61.023 42.299 60.7663 41.6092C60.5096 40.9194 60.0591 40.3185 59.469 39.8786C58.8789 39.4388 58.1743 39.1788 57.4399 39.1299C57.2279 38.3086 56.7499 37.5806 56.0805 37.0596C55.4111 36.5386 54.5881 36.2539 53.7399 36.2499H41.0699C41.9498 33.7369 42.3087 31.071 42.1247 28.4148C41.9408 25.7586 41.2178 23.1676 39.9999 20.7999L43.2699 17.5399C43.3636 17.4469 43.438 17.3363 43.4888 17.2145C43.5396 17.0926 43.5657 16.9619 43.5657 16.8299C43.5657 16.6979 43.5396 16.5672 43.4888 16.4453C43.438 16.3235 43.3636 16.2129 43.2699 16.1199L40.5299 13.3899C41.9166 12.3324 43.6387 11.8117 45.379 11.9238C47.1193 12.0359 48.7604 12.7732 49.9999 13.9999C50.0933 14.0926 50.2042 14.1659 50.326 14.2157C50.4478 14.2654 50.5783 14.2907 50.7099 14.2899C50.9722 14.2888 51.2236 14.1846 51.4099 13.9999C51.5962 13.8125 51.7007 13.5591 51.7007 13.2949C51.7007 13.0307 51.5962 12.7773 51.4099 12.5899C49.7913 10.9846 47.6353 10.036 45.3582 9.927C43.0811 9.81804 40.8444 10.5565 39.0799 11.9999L36.2499 9.1299C36.0625 8.94365 35.8091 8.83911 35.5449 8.83911C35.2807 8.83911 35.0273 8.94365 34.8399 9.1299L31.5699 12.3999C28.9365 11.0485 26.031 10.3117 23.0719 10.245C20.1127 10.1782 17.1769 10.7832 14.4853 12.0145C11.7937 13.2458 9.41618 15.0713 7.53166 17.3537C5.64714 19.6362 4.30462 22.3162 3.60504 25.1922C2.90546 28.0683 2.86704 31.0655 3.49266 33.9585C4.11828 36.8515 5.39166 39.5651 7.21705 41.8951C9.04243 44.2251 11.3723 46.111 14.0315 47.4108C16.6907 48.7107 19.61 49.3908 22.5699 49.3999C22.9599 49.3999 23.3599 49.3999 23.7499 49.3999C23.9099 50.223 24.3349 50.971 24.9599 51.5299C24.3995 52.0304 23.9992 52.685 23.8089 53.4118C23.6187 54.1387 23.647 54.9055 23.8904 55.6163C24.1337 56.3272 24.5813 56.9505 25.1771 57.4082C25.7728 57.866 26.4904 58.1379 27.2399 58.1899C27.4621 58.9941 27.9408 59.7037 28.6032 60.2109C29.2657 60.7182 30.0756 60.9952 30.9099 60.9999H53.7499C54.7705 60.9987 55.7489 60.5922 56.4699 59.8699C56.9535 59.3903 57.299 58.7892 57.4699 58.1299C58.2194 58.0779 58.937 57.806 59.5328 57.3482C60.1286 56.8904 60.5761 56.2672 60.8195 55.5563C61.0628 54.8455 61.0911 54.0787 60.9009 53.3518C60.7107 52.625 60.3103 51.9704 59.7499 51.4699L59.8899 51.3499C60.248 50.9942 60.5308 50.5701 60.7215 50.1028C60.9123 49.6355 61.0069 49.1346 60.9999 48.6299V48.6299ZM56.2999 48.6299L56.4599 48.4999C56.9348 48.0333 57.2795 47.4508 57.4599 46.8099C57.8908 46.8811 58.2824 47.1033 58.5645 47.4368C58.8467 47.7702 59.001 48.1931 58.9999 48.6299C59.0011 48.8726 58.953 49.1129 58.8585 49.3364C58.7639 49.5599 58.6249 49.7618 58.4499 49.9299C58.1844 50.2089 57.8316 50.3888 57.4499 50.4399C57.257 49.7372 56.8603 49.1074 56.3099 48.6299H56.2999ZM55.5799 51.4699C55.5799 51.9579 55.3861 52.4259 55.041 52.771C54.6959 53.116 54.2279 53.3099 53.7399 53.3099H49.7399C50.4329 52.1944 50.8637 50.9361 50.9999 49.6299H53.7399C53.9824 49.6286 54.2227 49.6752 54.4471 49.7671C54.6715 49.859 54.8755 49.9943 55.0475 50.1653C55.2194 50.3363 55.3558 50.5396 55.4489 50.7635C55.542 50.9873 55.5899 51.2274 55.5899 51.4699H55.5799ZM29.0599 51.4699C29.0599 51.2283 29.1075 50.989 29.2 50.7658C29.2924 50.5425 29.428 50.3397 29.5988 50.1688C29.7697 49.998 29.9725 49.8624 30.1958 49.77C30.419 49.6775 30.6583 49.6299 30.8999 49.6299H33.4999C33.6589 50.9369 34.1026 52.1931 34.7999 53.3099H30.8999C30.4145 53.3047 29.9505 53.1088 29.6082 52.7646C29.2658 52.4204 29.0725 51.9554 29.0699 51.4699H29.0599ZM27.2199 50.4699C26.7787 50.4131 26.3733 50.1975 26.0795 49.8634C25.7858 49.5294 25.6237 49.0998 25.6237 48.6549C25.6237 48.2101 25.7858 47.7804 26.0795 47.4464C26.3733 47.1123 26.7787 46.8967 27.2199 46.8399C27.415 47.5397 27.8032 48.1704 28.3399 48.6599C27.8119 49.1387 27.4275 49.755 27.2299 50.4399L27.2199 50.4699ZM27.2199 41.1499C27.4125 41.8508 27.801 42.4821 28.3399 42.9699C27.8032 43.4594 27.415 44.0901 27.2199 44.7899C26.7836 44.725 26.3851 44.5056 26.097 44.1715C25.8089 43.8375 25.6505 43.411 25.6505 42.9699C25.6505 42.5288 25.8089 42.1023 26.097 41.7683C26.3851 41.4342 26.7836 41.2148 27.2199 41.1499V41.1499ZM33.4999 47.6599H30.8999C30.4341 47.6256 29.9984 47.4163 29.6805 47.0741C29.3625 46.7319 29.1858 46.282 29.1858 45.8149C29.1858 45.3478 29.3625 44.898 29.6805 44.5557C29.9984 44.2135 30.4341 44.0042 30.8999 43.9699H34.7999C34.1089 45.0816 33.6686 46.3306 33.5099 47.6299L33.4999 47.6599ZM35.4399 48.6599C35.4379 47.3102 35.8365 45.9902 36.5851 44.8672C37.3337 43.7441 38.3988 42.8684 39.6454 42.351C40.892 41.8335 42.2641 41.6976 43.588 41.9605C44.9118 42.2233 46.128 42.873 47.0824 43.8274C48.0368 44.7818 48.6865 45.998 48.9493 47.3218C49.2122 48.6457 49.0763 50.0178 48.5588 51.2644C48.0414 52.511 47.1657 53.5761 46.0427 54.3247C44.9196 55.0733 43.5996 55.4719 42.2499 55.4699C41.3543 55.4673 40.468 55.2883 39.6415 54.9431C38.8151 54.598 38.0647 54.0934 37.4333 53.4582C36.8018 52.8231 36.3017 52.0698 35.9614 51.2413C35.6211 50.4129 35.4473 49.5255 35.4499 48.6299L35.4399 48.6599ZM55.5799 45.8199C55.5793 46.3077 55.3851 46.7753 55.0399 47.1199C54.8703 47.2922 54.6678 47.4287 54.4446 47.5215C54.2213 47.6142 53.9817 47.6613 53.7399 47.6599H50.9999C50.8534 46.3469 50.4087 45.0848 49.6999 43.9699H53.6999C53.9437 43.9646 54.1861 44.0075 54.4133 44.0963C54.6404 44.185 54.8477 44.3177 55.0234 44.4869C55.199 44.656 55.3395 44.8582 55.4367 45.0818C55.534 45.3055 55.586 45.5461 55.5899 45.7899L55.5799 45.8199ZM58.9999 42.9399C59.0013 43.1841 58.9533 43.426 58.8588 43.6511C58.7643 43.8763 58.6252 44.0799 58.4499 44.2499C58.1778 44.5199 57.8282 44.6982 57.4499 44.7599C57.2589 44.0584 56.8701 43.4266 56.3299 42.9399L56.4899 42.8099C56.9667 42.3448 57.3117 41.7617 57.4899 41.1199C57.9154 41.1975 58.2999 41.4224 58.576 41.7552C58.8521 42.088 59.0022 42.5075 58.9999 42.9399V42.9399ZM55.5899 40.0999C55.5899 40.5879 55.3961 41.0559 55.051 41.401C54.7059 41.746 54.2379 41.9399 53.7499 41.9399H47.9999C46.4061 40.5719 44.3752 39.8199 42.2749 39.8199C40.1746 39.8199 38.1437 40.5719 36.5499 41.9399H30.9099C30.4441 41.9056 30.0084 41.6963 29.6905 41.3541C29.3725 41.0119 29.1958 40.562 29.1958 40.0949C29.1958 39.6278 29.3725 39.178 29.6905 38.8357C30.0084 38.4935 30.4441 38.2842 30.9099 38.2499H53.7499C54.2388 38.2525 54.7068 38.4486 55.0516 38.7953C55.3964 39.1419 55.5899 39.611 55.5899 40.0999V40.0999ZM35.5899 11.2499L41.1599 16.8299L38.9399 18.9999C37.4866 16.7734 35.5864 14.8733 33.3599 13.4199L35.5899 11.2499ZM10.1899 42.2499C7.16786 39.2483 5.33835 35.2516 5.04139 31.0025C4.74443 26.7535 6.00022 22.5411 8.57538 19.1483C11.1505 15.7555 14.8699 13.4131 19.0422 12.5562C23.2146 11.6994 27.5561 12.3865 31.2599 14.4899C34.0225 16.0557 36.3099 18.3397 37.8799 21.0999C39.1661 23.3907 39.9235 25.9402 40.0965 28.5616C40.2695 31.183 39.8539 33.81 38.8799 36.2499H30.8799C30.0317 36.2539 29.2087 36.5386 28.5393 37.0596C27.87 37.5806 27.392 38.3086 27.1799 39.1299C26.4302 39.1793 25.7118 39.4493 25.1151 39.9059C24.5184 40.3624 24.0701 40.9853 23.8264 41.696C23.5827 42.4067 23.5546 43.1736 23.7456 43.9003C23.9366 44.6269 24.3382 45.2809 24.8999 45.7799C24.4504 46.2037 24.1077 46.7281 23.8999 47.3099C21.3761 47.5084 18.8393 47.1561 16.4651 46.2772C14.0909 45.3983 11.9361 44.0139 10.1499 42.2199L10.1899 42.2499ZM25.6899 54.3499C25.6903 53.9072 25.8502 53.4795 26.1404 53.1452C26.4307 52.8109 26.8317 52.5925 27.2699 52.5299C27.4652 53.2267 27.8535 53.8542 28.3899 54.3399C27.8532 54.8294 27.465 55.4601 27.2699 56.1599C26.821 56.1059 26.4077 55.8884 26.1088 55.549C25.81 55.2096 25.6467 54.7721 25.6499 54.3199L25.6899 54.3499ZM55.0999 58.4899C54.7516 58.8357 54.2807 59.0298 53.7899 59.0299H30.9099C30.4441 58.9956 30.0084 58.7863 29.6905 58.4441C29.3725 58.1019 29.1958 57.652 29.1958 57.1849C29.1958 56.7178 29.3725 56.268 29.6905 55.9257C30.0084 55.5835 30.4441 55.3742 30.9099 55.3399H36.5399C38.1309 56.7137 40.1629 57.4695 42.2649 57.4695C44.3669 57.4695 46.3989 56.7137 47.9899 55.3399H53.7499C54.1143 55.3411 54.4702 55.4499 54.773 55.6527C55.0758 55.8554 55.3119 56.1431 55.4518 56.4795C55.5918 56.816 55.6292 57.1862 55.5595 57.5439C55.4898 57.9016 55.316 58.2307 55.0599 58.4899H55.0999ZM58.5099 55.6499C58.2355 55.9167 57.887 56.0945 57.5099 56.1599C57.3189 55.4584 56.9301 54.8266 56.3899 54.3399L56.5499 54.2099C57.0226 53.7456 57.3671 53.1668 57.5499 52.5299C57.9592 52.6187 58.326 52.8445 58.5897 53.1699C58.8533 53.4954 58.998 53.9011 58.9999 54.3199C59.002 54.5609 58.9563 54.7999 58.8653 55.0231C58.7743 55.2462 58.6399 55.4491 58.4699 55.6199L58.5099 55.6499Z"
    fill="black" />
  <path
    d="M42.7097 51.2401C42.9514 51.3372 43.2214 51.3361 43.4623 51.2371C43.7032 51.1381 43.896 50.949 43.9997 50.7101V50.7101C44.0548 50.5876 44.0821 50.4544 44.0797 50.3201V44.6101C44.0797 44.3449 43.9743 44.0905 43.7868 43.903C43.5993 43.7155 43.3449 43.6101 43.0797 43.6101C42.8145 43.6101 42.5601 43.7155 42.3726 43.903C42.1851 44.0905 42.0797 44.3449 42.0797 44.6101V48.8201L38.4497 47.2901C38.2102 47.21 37.9493 47.2234 37.7193 47.3277C37.4893 47.432 37.3073 47.6194 37.2098 47.8524C37.1124 48.0853 37.1066 48.3465 37.1938 48.5835C37.2809 48.8205 37.4545 49.0158 37.6797 49.1301L42.7097 51.2401Z"
    fill="black" />
</svg>