<?xml version="1.0" encoding="UTF-8" standalone="no"?> <svg xmlns="http://www.w3.org/2000/svg" viewBox="0 0 64 64">
  <defs>
    <style>
      .cls-1 {
        fill: #d8d8d8;
      }

      .cls-1,
      .cls-3 {
        stroke: #54596e;
        stroke-linecap: round;
        stroke-linejoin: round;
        stroke-width: 2px;
      }

      .cls-2 {
        fill: #54596e;
        opacity: 0.2;
      }

      .cls-3 {
        fill: none;
      }

      .cls-4 {
        fill: #55a6ff;
      }
    </style>
  </defs>
  <title>sword-heart</title>
  <g id="cloud-rain">
    <path class="cls-1"
      d="M51.46,22.1c0-.28,0-.56,0-.85a15.24,15.24,0,0,0-30-3.63A7,7,0,0,0,9.09,23.06,12,12,0,0,0,14,46H50a12,12,0,0,0,1.46-23.9Z" />
    <path class="cls-2"
      d="M50,40H14A12,12,0,0,1,2.39,31,12,12,0,0,0,14,46H50A12,12,0,0,0,61.61,31,12,12,0,0,1,50,40Z" />
    <path class="cls-3" d="M43,23.58a3,3,0,0,1-5.48.14" />
    <path class="cls-3" d="M27,23.58a3,3,0,0,1-5.48.14" />
    <path class="cls-4" d="M48.43,54.79a3.21,3.21,0,0,1-6.43,0C42,53,44.57,49,45.21,49S48.43,53,48.43,54.79Z" />
    <path class="cls-4" d="M38.43,46.79a3.21,3.21,0,0,1-6.43,0C32,45,34.57,41,35.21,41S38.43,45,38.43,46.79Z" />
    <path class="cls-4" d="M19.43,59.79a3.21,3.21,0,0,1-6.43,0C13,58,15.57,54,16.21,54S19.43,58,19.43,59.79Z" />
    <path class="cls-4" d="M27.43,49.79a3.21,3.21,0,0,1-6.43,0C21,48,23.57,44,24.21,44S27.43,48,27.43,49.79Z" />
    <path class="cls-4" d="M27.43,34.79a3.21,3.21,0,0,1-6.43,0C21,33,23.57,29,24.21,29S27.43,33,27.43,34.79Z" />
  </g>
</svg>