<?xml version="1.0" encoding="iso-8859-1"?>
<!-- Generator: Adobe Illustrator 20.1.0, SVG Export Plug-In . SVG Version: 6.00 Build 0)  -->
<svg version="1.1"  xmlns="http://www.w3.org/2000/svg" xmlns:xlink="http://www.w3.org/1999/xlink" x="0px" y="0px"
	 viewBox="0 0 48 48" style="enable-background:new 0 0 48 48;" xml:space="preserve">
<ellipse style="fill:#607D8B;" cx="24" cy="37" rx="13" ry="6"/>
<ellipse style="fill:#90A4AE;" cx="24" cy="25" rx="20" ry="16"/>
<path style="fill:none;stroke:#CFD8DC;stroke-width:2;stroke-linecap:round;stroke-miterlimit:10;" d="M13.257,22.329
	c0,0-1.257,2.099-1.257,4.228C12,29.749,14,33,14,33"/>
<path style="fill:#607D8B;" d="M33.771,11.047C31.067,10.393,27.684,10,24,10s-7.067,0.393-9.771,1.047
	c-2.414,1.085-4.508,2.562-6.169,4.319C8.661,17.956,15.559,20,24,20s15.339-2.044,15.941-4.634
	C38.279,13.609,36.186,12.132,33.771,11.047z"/>
<ellipse style="fill:#90A4AE;" cx="24" cy="13" rx="16" ry="5"/>
<ellipse style="fill:#3E2723;" cx="24" cy="12.094" rx="12.5" ry="3.906"/>
<path style="fill:#FF9800;" d="M10.443,12.398c-0.955-1.354-0.266-3.484,1.539-4.757s4.043-1.209,4.998,0.145
	c0.099,0.14,0.478,0.677,0.577,0.817c0.955,1.354,0.266,3.484-1.539,4.757s-4.043,1.209-4.998-0.145
	C10.921,13.075,10.542,12.537,10.443,12.398z"/>
<ellipse transform="matrix(0.8171 -0.5765 0.5765 0.8171 -3.3098 9.7508)" style="fill:#FFC107;" cx="13.712" cy="10.091" rx="4" ry="3"/>
<ellipse transform="matrix(0.8171 -0.5765 0.5765 0.8171 -3.3098 9.7508)" style="fill:#FFE082;" cx="13.712" cy="10.091" rx="3" ry="2"/>
<path style="fill:#FF9800;" d="M21.508,6.514c-0.631-1.532-2.798-2.092-4.841-1.251s-3.187,2.765-2.556,4.297
	c0.065,0.158,0.316,0.766,0.381,0.925c0.631,1.532,2.798,2.092,4.841,1.251c2.043-0.841,3.187-2.765,2.556-4.297
	C21.824,7.281,21.573,6.673,21.508,6.514z"/>
<ellipse transform="matrix(0.9246 -0.3808 0.3808 0.9246 -1.719 7.3884)" style="fill:#FFC107;" cx="17.81" cy="8.038" rx="4" ry="3"/>
<ellipse transform="matrix(0.9246 -0.3808 0.3808 0.9246 -1.719 7.3884)" style="fill:#FFE082;" cx="17.81" cy="8.038" rx="3" ry="2"/>
<path style="fill:#FF9800;" d="M37.557,12.398c0.955-1.354,0.266-3.484-1.539-4.757s-4.043-1.209-4.998,0.145
	c-0.099,0.14-0.478,0.677-0.577,0.817c-0.955,1.354-0.266,3.484,1.539,4.757c1.805,1.274,4.043,1.209,4.998-0.145
	C37.079,13.075,37.458,12.537,37.557,12.398z"/>
<ellipse transform="matrix(0.5765 -0.8171 0.8171 0.5765 6.275 32.2902)" style="fill:#FFC107;" cx="34.288" cy="10.091" rx="3" ry="4"/>
<ellipse transform="matrix(0.5765 -0.8171 0.8171 0.5765 6.275 32.2902)" style="fill:#FFE082;" cx="34.288" cy="10.091" rx="2" ry="3"/>
<path style="fill:#FF9800;" d="M33.031,8.555c0.228-1.641-1.361-3.218-3.549-3.522c-2.188-0.304-4.147,0.78-4.375,2.421
	c-0.024,0.17-0.114,0.821-0.138,0.99c-0.228,1.641,1.361,3.218,3.549,3.522c2.188,0.304,4.147-0.78,4.375-2.421
	C32.917,9.376,33.007,8.725,33.031,8.555z"/>
<ellipse transform="matrix(0.1377 -0.9905 0.9905 0.1377 17.1389 35.695)" style="fill:#FFC107;" cx="29.069" cy="8.005" rx="3" ry="4"/>
<ellipse transform="matrix(0.1377 -0.9905 0.9905 0.1377 17.1389 35.695)" style="fill:#FFE082;" cx="29.069" cy="8.005" rx="2" ry="3"/>
<path style="fill:#FF9800;" d="M26,7c0-1.657-1.791-3-4-3s-4,1.343-4,3c0,0.171,0,0.829,0,1c0,1.657,1.791,3,4,3s4-1.343,4-3
	C26,7.829,26,7.171,26,7z"/>
<ellipse style="fill:#FFC107;" cx="22" cy="7" rx="4" ry="3"/>
<ellipse style="fill:#FFE082;" cx="22" cy="7" rx="3" ry="2"/>
<path style="fill:#FF9800;" d="M30.016,10.847c0.346-1.62-1.124-3.308-3.284-3.77c-2.16-0.462-4.192,0.477-4.539,2.097
	c-0.036,0.167-0.173,0.81-0.209,0.978c-0.346,1.62,1.124,3.308,3.284,3.77s4.192-0.477,4.539-2.097
	C29.843,11.658,29.98,11.015,30.016,10.847z"/>
<ellipse transform="matrix(0.2091 -0.9779 0.9779 0.2091 10.8561 33.4451)" style="fill:#FFC107;" cx="26.105" cy="10.011" rx="3" ry="4"/>
<ellipse transform="matrix(0.2091 -0.9779 0.9779 0.2091 10.8561 33.4451)" style="fill:#FFE082;" cx="26.105" cy="10.011" rx="2" ry="3"/>
<path style="fill:#FF9800;" d="M33.741,15.002c0.803-1.449-0.112-3.492-2.044-4.563c-1.932-1.071-4.15-0.764-4.953,0.685
	c-0.083,0.15-0.402,0.725-0.485,0.875c-0.803,1.449,0.112,3.492,2.044,4.563s4.15,0.764,4.953-0.685
	C33.339,15.727,33.658,15.152,33.741,15.002z"/>
<ellipse transform="matrix(0.4848 -0.8746 0.8746 0.4848 4.1563 33.1812)" style="fill:#FFC107;" cx="30.242" cy="13.063" rx="3" ry="4"/>
<ellipse transform="matrix(0.4848 -0.8746 0.8746 0.4848 4.1563 33.1812)" style="fill:#FFE082;" cx="30.242" cy="13.063" rx="2" ry="3"/>
<path style="fill:#FF9800;" d="M19.891,9.691c-0.998-1.322-3.237-1.316-5,0.015s-2.383,3.482-1.385,4.804
	c0.103,0.137,0.499,0.661,0.602,0.798c0.998,1.322,3.237,1.316,5-0.015c1.763-1.331,2.383-3.482,1.385-4.804
	C20.391,10.352,19.995,9.828,19.891,9.691z"/>
<ellipse transform="matrix(0.7981 -0.6025 0.6025 0.7981 -3.9197 12.5032)" style="fill:#FFC107;" cx="16.699" cy="12.101" rx="4" ry="3"/>
<ellipse transform="matrix(0.7981 -0.6025 0.6025 0.7981 -3.9197 12.5032)" style="fill:#FFE082;" cx="16.699" cy="12.101" rx="3" ry="2"/>
<path style="fill:#FF9800;" d="M26,13c0-1.657-1.791-3-4-3s-4,1.343-4,3c0,0.171,0,0.829,0,1c0,1.657,1.791,3,4,3s4-1.343,4-3
	C26,13.829,26,13.171,26,13z"/>
<ellipse style="fill:#FFC107;" cx="22" cy="13" rx="4" ry="3"/>
<ellipse style="fill:#FFE082;" cx="22" cy="13" rx="3" ry="2"/>
<path style="fill:#607D8B;" d="M40.837,16.378c0.506,0.631,0.96,1.291,1.354,1.979C42.899,18.357,44,18.572,44,19
	c0,0.91-2.279,1.938-4.035,2.001c-0.552,0.02-0.983,0.482-0.964,1.034c0.02,0.54,0.462,0.965,0.998,0.965
	c0.012,0,0.023,0,0.035-0.001C40.747,22.975,46,22.653,46,19C46,18.334,45.18,16.378,40.837,16.378z"/>
<path style="fill:#607D8B;" d="M7.163,16.378c-0.506,0.631-0.96,1.291-1.354,1.979C5.101,18.357,4,18.572,4,19
	c0,0.91,2.279,1.938,4.035,2.001c0.552,0.02,0.983,0.482,0.964,1.034C8.979,22.575,8.537,23,8.001,23c-0.012,0-0.023,0-0.035-0.001
	C7.253,22.975,2,22.653,2,19C2,18.334,2.82,16.378,7.163,16.378z"/>
</svg>
